<svg xmlns="http://www.w3.org/2000/svg" xmlns:xlink="http://www.w3.org/1999/xlink" version="1.2" baseProfile="tiny" x="0px" y="0px" viewBox="0 0 100 125" xml:space="preserve"><g><path d="M50,75.052c13.807,0,25-11.193,25-25s-11.193-25-25-25s-25,11.193-25,25S36.193,75.052,50,75.052z M50,32.552   c9.65,0,17.5,7.851,17.5,17.5c0,9.65-7.85,17.5-17.5,17.5s-17.5-7.85-17.5-17.5C32.5,40.403,40.35,32.552,50,32.552z"/><path d="M78.285,78.336l3.535,3.535c17.546-17.545,17.546-46.094,0-63.639l-3.535,3.535C93.88,37.364,93.88,62.74,78.285,78.336z"/><path d="M21.715,78.336C6.12,62.74,6.12,37.364,21.715,21.768l-3.535-3.535c-17.546,17.545-17.546,46.094,0,63.639L21.715,78.336z"/><path d="M71.213,71.266l3.535,3.535c13.646-13.646,13.646-35.851,0-49.497l-3.535,3.535C82.91,40.536,82.91,59.568,71.213,71.266z"/><path d="M25.251,74.801l3.535-3.535c-11.697-11.697-11.697-30.73,0-42.427l-3.535-3.535C11.605,38.95,11.605,61.154,25.251,74.801z   "/><path d="M50,57.552c4.136,0,7.5-3.364,7.5-7.5s-3.364-7.5-7.5-7.5s-7.5,3.364-7.5,7.5S45.864,57.552,50,57.552z M50,47.552   c1.378,0,2.5,1.122,2.5,2.5s-1.122,2.5-2.5,2.5s-2.5-1.122-2.5-2.5S48.622,47.552,50,47.552z"/></g><text x="0" y="115" fill="#000000" font-size="5px" font-weight="bold" font-family="'Helvetica Neue', Helvetica, Arial-Unicode, Arial, Sans-serif">Created by Arthur Shlain</text><text x="0" y="120" fill="#000000" font-size="5px" font-weight="bold" font-family="'Helvetica Neue', Helvetica, Arial-Unicode, Arial, Sans-serif">from the Noun Project</text></svg>